<mxfile host="65bd71144e">
    <diagram id="NCYUs6mGyVr-NCvrPmdV" name="PÃ¡gina-1">
        <mxGraphModel dx="2503" dy="1055" grid="1" gridSize="10" guides="1" tooltips="1" connect="1" arrows="1" fold="1" page="1" pageScale="1" pageWidth="1500" pageHeight="1000" math="0" shadow="0">
            <root>
                <mxCell id="0"/>
                <mxCell id="1" parent="0"/>
                <mxCell id="14" value="Metodo Pago" style="shape=umlLifeline;perimeter=lifelinePerimeter;whiteSpace=wrap;html=1;container=1;collapsible=0;recursiveResize=0;outlineConnect=0;" parent="1" vertex="1">
                    <mxGeometry x="720" y="40" width="100" height="840" as="geometry"/>
                </mxCell>
                <mxCell id="36" value="Seleccionar(Fecha de visita)" style="html=1;verticalAlign=bottom;endArrow=block;" edge="1" parent="14">
                    <mxGeometry width="80" relative="1" as="geometry">
                        <mxPoint x="40" y="590" as="sourcePoint"/>
                        <mxPoint x="-520" y="590" as="targetPoint"/>
                        <mxPoint as="offset"/>
                    </mxGeometry>
                </mxCell>
                <mxCell id="7" value="Interfaz Principal" style="shape=umlLifeline;perimeter=lifelinePerimeter;whiteSpace=wrap;html=1;container=1;collapsible=0;recursiveResize=0;outlineConnect=0;" parent="1" vertex="1">
                    <mxGeometry x="140" y="40" width="100" height="840" as="geometry"/>
                </mxCell>
                <mxCell id="16" value="" style="html=1;points=[];perimeter=orthogonalPerimeter;" parent="7" vertex="1">
                    <mxGeometry x="45" y="100" width="10" height="30" as="geometry"/>
                </mxCell>
                <mxCell id="18" value="Verificar (Datos en sistema)" style="html=1;verticalAlign=bottom;endArrow=block;" parent="7" edge="1">
                    <mxGeometry width="80" relative="1" as="geometry">
                        <mxPoint x="60" y="129" as="sourcePoint"/>
                        <mxPoint x="1260" y="129" as="targetPoint"/>
                    </mxGeometry>
                </mxCell>
                <mxCell id="40" value="" style="html=1;points=[];perimeter=orthogonalPerimeter;" vertex="1" parent="7">
                    <mxGeometry x="45" y="210" width="10" height="30" as="geometry"/>
                </mxCell>
                <mxCell id="46" value="" style="html=1;points=[];perimeter=orthogonalPerimeter;" vertex="1" parent="7">
                    <mxGeometry x="45" y="380" width="10" height="30" as="geometry"/>
                </mxCell>
                <mxCell id="31" value="" style="html=1;points=[];perimeter=orthogonalPerimeter;" vertex="1" parent="7">
                    <mxGeometry x="45" y="470" width="10" height="90" as="geometry"/>
                </mxCell>
                <mxCell id="50" value="Ingresar&lt;br&gt;(Metodo pago)" style="html=1;verticalAlign=bottom;endArrow=block;" edge="1" parent="7">
                    <mxGeometry width="80" relative="1" as="geometry">
                        <mxPoint x="-60" y="520" as="sourcePoint"/>
                        <mxPoint x="30" y="520" as="targetPoint"/>
                        <mxPoint as="offset"/>
                    </mxGeometry>
                </mxCell>
                <mxCell id="52" value="Ingresar&lt;br&gt;(Metodo pago)" style="html=1;verticalAlign=bottom;endArrow=block;" edge="1" parent="7">
                    <mxGeometry width="80" relative="1" as="geometry">
                        <mxPoint x="-50" y="619.9999999999998" as="sourcePoint"/>
                        <mxPoint x="40" y="619.9999999999998" as="targetPoint"/>
                        <mxPoint as="offset"/>
                    </mxGeometry>
                </mxCell>
                <mxCell id="53" value="" style="html=1;points=[];perimeter=orthogonalPerimeter;" vertex="1" parent="7">
                    <mxGeometry x="45" y="590" width="10" height="50" as="geometry"/>
                </mxCell>
                <mxCell id="15" value="Ingresar&lt;br&gt;(Datos usuario)" style="html=1;verticalAlign=bottom;endArrow=block;" parent="7" edge="1">
                    <mxGeometry width="80" relative="1" as="geometry">
                        <mxPoint x="-50" y="100.00000000000003" as="sourcePoint"/>
                        <mxPoint x="30" y="100.00000000000003" as="targetPoint"/>
                        <mxPoint as="offset"/>
                    </mxGeometry>
                </mxCell>
                <mxCell id="57" value="" style="html=1;points=[];perimeter=orthogonalPerimeter;" vertex="1" parent="7">
                    <mxGeometry x="45" y="670" width="10" height="10" as="geometry"/>
                </mxCell>
                <mxCell id="58" value="" style="html=1;points=[];perimeter=orthogonalPerimeter;" vertex="1" parent="7">
                    <mxGeometry x="45" y="710" width="10" height="10" as="geometry"/>
                </mxCell>
                <mxCell id="59" value="Cerrar sesion" style="html=1;verticalAlign=bottom;endArrow=block;" edge="1" parent="7">
                    <mxGeometry width="80" relative="1" as="geometry">
                        <mxPoint x="-50" y="779.9999999999998" as="sourcePoint"/>
                        <mxPoint x="40" y="779.9999999999998" as="targetPoint"/>
                        <mxPoint as="offset"/>
                    </mxGeometry>
                </mxCell>
                <mxCell id="60" value="" style="html=1;points=[];perimeter=orthogonalPerimeter;" vertex="1" parent="7">
                    <mxGeometry x="45" y="780" width="10" height="20" as="geometry"/>
                </mxCell>
                <mxCell id="64" value="" style="html=1;points=[];perimeter=orthogonalPerimeter;" vertex="1" parent="7">
                    <mxGeometry x="45" y="830" width="10" height="10" as="geometry"/>
                </mxCell>
                <mxCell id="9" value="Login" style="shape=umlLifeline;perimeter=lifelinePerimeter;whiteSpace=wrap;html=1;container=1;collapsible=0;recursiveResize=0;outlineConnect=0;" parent="1" vertex="1">
                    <mxGeometry x="1370" y="40" width="90" height="840" as="geometry"/>
                </mxCell>
                <mxCell id="19" value="" style="html=1;points=[];perimeter=orthogonalPerimeter;" parent="9" vertex="1">
                    <mxGeometry x="40" y="130" width="10" height="80" as="geometry"/>
                </mxCell>
                <mxCell id="11" value="Galeria Animales" style="shape=umlLifeline;perimeter=lifelinePerimeter;whiteSpace=wrap;html=1;container=1;collapsible=0;recursiveResize=0;outlineConnect=0;" parent="1" vertex="1">
                    <mxGeometry x="320" y="40" width="100" height="840" as="geometry"/>
                </mxCell>
                <mxCell id="23" value="verificar (disponibilidad)" style="html=1;verticalAlign=bottom;endArrow=block;" parent="11" edge="1">
                    <mxGeometry width="80" relative="1" as="geometry">
                        <mxPoint x="-120" y="240" as="sourcePoint"/>
                        <mxPoint x="40" y="240" as="targetPoint"/>
                    </mxGeometry>
                </mxCell>
                <mxCell id="42" value="" style="html=1;points=[];perimeter=orthogonalPerimeter;" vertex="1" parent="11">
                    <mxGeometry x="45" y="240" width="10" height="20" as="geometry"/>
                </mxCell>
                <mxCell id="45" value="&lt;span style=&quot;&quot;&gt;Interfaz&lt;br&gt;&amp;nbsp;(Seleccion de animales a vender)&lt;/span&gt;" style="html=1;verticalAlign=bottom;endArrow=none;endFill=0;startArrow=block;startFill=1;" edge="1" parent="11">
                    <mxGeometry width="80" relative="1" as="geometry">
                        <mxPoint x="-120" y="380" as="sourcePoint"/>
                        <mxPoint x="40" y="380" as="targetPoint"/>
                    </mxGeometry>
                </mxCell>
                <mxCell id="47" value="verificar (disponibilidad)" style="html=1;verticalAlign=bottom;endArrow=block;" edge="1" parent="11">
                    <mxGeometry width="80" relative="1" as="geometry">
                        <mxPoint x="-115" y="410" as="sourcePoint"/>
                        <mxPoint x="40" y="410" as="targetPoint"/>
                    </mxGeometry>
                </mxCell>
                <mxCell id="48" value="" style="html=1;points=[];perimeter=orthogonalPerimeter;" vertex="1" parent="11">
                    <mxGeometry x="45" y="410" width="10" height="30" as="geometry"/>
                </mxCell>
                <mxCell id="21" value="Interfaz (Seleccion de animales a vender)" style="html=1;verticalAlign=bottom;endArrow=none;endFill=0;startArrow=block;startFill=1;" parent="1" edge="1">
                    <mxGeometry width="80" relative="1" as="geometry">
                        <mxPoint x="200" y="250" as="sourcePoint"/>
                        <mxPoint x="1390" y="250" as="targetPoint"/>
                    </mxGeometry>
                </mxCell>
                <mxCell id="34" value="Factura" style="shape=umlLifeline;perimeter=lifelinePerimeter;whiteSpace=wrap;html=1;container=1;collapsible=0;recursiveResize=0;outlineConnect=0;" vertex="1" parent="1">
                    <mxGeometry x="1100" y="40" width="100" height="840" as="geometry"/>
                </mxCell>
                <mxCell id="39" value="" style="html=1;points=[];perimeter=orthogonalPerimeter;" vertex="1" parent="34">
                    <mxGeometry x="45" y="590" width="10" height="120" as="geometry"/>
                </mxCell>
                <mxCell id="38" value="Confirmar pago" style="html=1;verticalAlign=bottom;endArrow=block;" edge="1" parent="34">
                    <mxGeometry width="80" relative="1" as="geometry">
                        <mxPoint x="-320" y="590" as="sourcePoint"/>
                        <mxPoint x="40" y="590" as="targetPoint"/>
                    </mxGeometry>
                </mxCell>
                <mxCell id="35" value="Visita" style="shape=umlLifeline;perimeter=lifelinePerimeter;whiteSpace=wrap;html=1;container=1;collapsible=0;recursiveResize=0;outlineConnect=0;" vertex="1" parent="1">
                    <mxGeometry x="910" y="40" width="100" height="840" as="geometry"/>
                </mxCell>
                <mxCell id="37" value="" style="html=1;points=[];perimeter=orthogonalPerimeter;" vertex="1" parent="35">
                    <mxGeometry x="45" y="640" width="10" height="30" as="geometry"/>
                </mxCell>
                <mxCell id="61" value="Cierre de sesion" style="html=1;verticalAlign=bottom;endArrow=block;" edge="1" parent="35">
                    <mxGeometry width="80" relative="1" as="geometry">
                        <mxPoint x="-710" y="800" as="sourcePoint"/>
                        <mxPoint x="490" y="800" as="targetPoint"/>
                    </mxGeometry>
                </mxCell>
                <mxCell id="30" value="ingresar metodo pago" style="html=1;verticalAlign=bottom;endArrow=none;endFill=0;startArrow=blockThin;startFill=1;" edge="1" parent="1">
                    <mxGeometry width="80" relative="1" as="geometry">
                        <mxPoint x="200" y="510" as="sourcePoint"/>
                        <mxPoint x="760" y="510" as="targetPoint"/>
                        <mxPoint as="offset"/>
                    </mxGeometry>
                </mxCell>
                <mxCell id="13" value="Carrito Compras" style="shape=umlLifeline;perimeter=lifelinePerimeter;whiteSpace=wrap;html=1;container=1;collapsible=0;recursiveResize=0;outlineConnect=0;" parent="1" vertex="1">
                    <mxGeometry x="520" y="40" width="100" height="840" as="geometry"/>
                </mxCell>
                <mxCell id="24" value="" style="html=1;points=[];perimeter=orthogonalPerimeter;" parent="13" vertex="1">
                    <mxGeometry x="45" y="260" width="10" height="90" as="geometry"/>
                </mxCell>
                <mxCell id="28" value="" style="html=1;points=[];perimeter=orthogonalPerimeter;" vertex="1" parent="13">
                    <mxGeometry x="-155" y="350" width="10" height="30" as="geometry"/>
                </mxCell>
                <mxCell id="26" value="Seleccionar(Metodo pago)" style="html=1;verticalAlign=bottom;endArrow=block;" parent="13" edge="1">
                    <mxGeometry width="80" relative="1" as="geometry">
                        <mxPoint x="60" y="350" as="sourcePoint"/>
                        <mxPoint x="240" y="350" as="targetPoint"/>
                    </mxGeometry>
                </mxCell>
                <mxCell id="32" value="confirmar metodo pago" style="html=1;verticalAlign=bottom;endArrow=block;" edge="1" parent="13">
                    <mxGeometry width="80" relative="1" as="geometry">
                        <mxPoint x="-310" y="560" as="sourcePoint"/>
                        <mxPoint x="240" y="560" as="targetPoint"/>
                    </mxGeometry>
                </mxCell>
                <mxCell id="33" value="" style="html=1;points=[];perimeter=orthogonalPerimeter;" vertex="1" parent="13">
                    <mxGeometry x="245" y="350" width="10" height="120" as="geometry"/>
                </mxCell>
                <mxCell id="27" value="Seleccion (Animales a comprar)" style="html=1;verticalAlign=bottom;endArrow=none;endFill=0;startArrow=block;startFill=1;" edge="1" parent="13">
                    <mxGeometry width="80" relative="1" as="geometry">
                        <mxPoint x="-140" y="350" as="sourcePoint"/>
                        <mxPoint x="40" y="350" as="targetPoint"/>
                    </mxGeometry>
                </mxCell>
                <mxCell id="29" value="Verificar animales a comprar" style="html=1;verticalAlign=bottom;endArrow=block;" edge="1" parent="13">
                    <mxGeometry width="80" relative="1" as="geometry">
                        <mxPoint x="-140" y="440" as="sourcePoint"/>
                        <mxPoint x="240" y="440" as="targetPoint"/>
                        <mxPoint as="offset"/>
                    </mxGeometry>
                </mxCell>
                <mxCell id="43" value="Verificar animales a comprar" style="html=1;verticalAlign=bottom;endArrow=block;" edge="1" parent="13">
                    <mxGeometry width="80" relative="1" as="geometry">
                        <mxPoint x="-140" y="260" as="sourcePoint"/>
                        <mxPoint x="30" y="260" as="targetPoint"/>
                    </mxGeometry>
                </mxCell>
                <mxCell id="51" value="" style="html=1;points=[];perimeter=orthogonalPerimeter;" vertex="1" parent="13">
                    <mxGeometry x="245" y="560" width="10" height="30" as="geometry"/>
                </mxCell>
                <mxCell id="41" value="seleccionar&lt;br&gt;(Animales a comprar)" style="html=1;verticalAlign=bottom;endArrow=block;" edge="1" parent="1">
                    <mxGeometry width="80" relative="1" as="geometry">
                        <mxPoint x="80" y="264.3800000000001" as="sourcePoint"/>
                        <mxPoint x="170" y="264.63" as="targetPoint"/>
                        <mxPoint as="offset"/>
                    </mxGeometry>
                </mxCell>
                <mxCell id="54" value="confirmar (disponibilida)" style="html=1;verticalAlign=bottom;endArrow=none;endFill=0;startArrow=blockThin;startFill=1;" edge="1" parent="1">
                    <mxGeometry width="80" relative="1" as="geometry">
                        <mxPoint x="950" y="680" as="sourcePoint"/>
                        <mxPoint x="200" y="679.9999999999998" as="targetPoint"/>
                        <mxPoint as="offset"/>
                    </mxGeometry>
                </mxCell>
                <mxCell id="55" value="confirmar (visita)" style="html=1;verticalAlign=bottom;endArrow=blockThin;endFill=1;startArrow=none;startFill=0;" edge="1" parent="1">
                    <mxGeometry width="80" relative="1" as="geometry">
                        <mxPoint x="950" y="709.9999999999998" as="sourcePoint"/>
                        <mxPoint x="200" y="709.9999999999998" as="targetPoint"/>
                        <mxPoint as="offset"/>
                    </mxGeometry>
                </mxCell>
                <mxCell id="56" value="mostrar (detalles factura)" style="html=1;verticalAlign=bottom;endArrow=blockThin;endFill=1;startArrow=none;startFill=0;" edge="1" parent="1">
                    <mxGeometry width="80" relative="1" as="geometry">
                        <mxPoint x="1140" y="750" as="sourcePoint"/>
                        <mxPoint x="200" y="750" as="targetPoint"/>
                        <mxPoint as="offset"/>
                        <Array as="points">
                            <mxPoint x="870" y="750"/>
                        </Array>
                    </mxGeometry>
                </mxCell>
                <mxCell id="62" value="" style="html=1;points=[];perimeter=orthogonalPerimeter;" vertex="1" parent="1">
                    <mxGeometry x="1410" y="840" width="10" height="30" as="geometry"/>
                </mxCell>
                <mxCell id="63" value="Confirmar Cierre de sesion" style="html=1;verticalAlign=bottom;endArrow=none;endFill=0;startArrow=blockThin;startFill=1;" edge="1" parent="1">
                    <mxGeometry width="80" relative="1" as="geometry">
                        <mxPoint x="200" y="870" as="sourcePoint"/>
                        <mxPoint x="1400" y="870" as="targetPoint"/>
                    </mxGeometry>
                </mxCell>
            </root>
        </mxGraphModel>
    </diagram>
</mxfile>